#!OML:ASF E:\motion texture\Top Level 1\Subject 1\Session 1\male.ASF
:FULLY-SPECIFIED
:DEGREES
306
root -8.85288 17.7067 3.83802 420.224 -88.1806 -414.995
lowerback -1.05286 -2.49854 0.315882
upperback -1.09972 -3.4212 4.98955
thorax -0.252049 -1.74389 4.93374
lowerneck -8.18724 -5.7121 -6.44797
upperneck 20.6951 -8.49664 5.33219
head 8.25833 -4.20674 1.98856
rclavicle 7.45443e-015 -4.77083e-015
rhumerus 0.714046 13.7066 -57.1308
rradius 113.597
rwrist -1.4809
rhand -20.0832 -28.4078
rfingers 7.12502
rthumb 6.25951 -58.2953
lclavicle 7.45443e-015 -4.77083e-015
lhumerus 9.94779 -18.1219 63.0944
lradius 114.649
lwrist -17.1117
lhand -26.5914 26.171
lfingers 7.12502
lthumb -0.0254685 56.1507
rfemur -31.2907 -1.45084 18.9095
rtibia 23.8056
rfoot 2.45427 -10.2364
rtoes 11.1968
lfemur 1.77474 -6.98838 -19.2501
ltibia 30.497
lfoot -15.0672 1.19265
ltoes -27.1279
307
root -9.00994 17.7282 3.8081 424.663 -88.0456 -419.495
lowerback -1.1611 -2.4318 0.487578
upperback -1.16518 -3.3397 5.10051
thorax -0.268602 -1.70541 4.95078
lowerneck -8.21342 -5.71273 -6.48098
upperneck 21.0709 -8.50896 5.22213
head 8.38711 -4.22899 1.95235
rclavicle 3.79679e-014 -1.59028e-014
rhumerus 3.31471 13.0096 -55.9623
rradius 115.024
rwrist -1.52858
rhand -20.2089 -28.521
rfingers 7.12502
rthumb 6.1381 -58.4121
lclavicle 3.79679e-014 -1.59028e-014
lhumerus 12.2127 -17.8752 62.0906
lradius 115.314
lwrist -16.8681
lhand -26.6215 26.3158
lfingers 7.12502
lthumb -0.0544957 56.2956
rfemur -30.7741 -1.52142 19.2824
rtibia 24.0796
rfoot 2.10463 -9.94829
rtoes 11.9368
lfemur 1.38496 -6.73876 -18.8073
ltibia 31.9427
lfoot -13.9706 0.580201
ltoes -28.0286
308
root -9.1669 17.7512 3.77793 429.086 -87.8537 -423.986
lowerback -1.24374 -2.35953 0.716812
upperback -1.23915 -3.25136 5.22578
thorax -0.311011 -1.66403 4.95209
lowerneck -8.22926 -5.70858 -6.52914
upperneck 21.4036 -8.51077 5.12568
head 8.5006 -4.24638 1.92477
rclavicle -6.36111e-015 -3.65764e-014
rhumerus 5.83216 12.3035 -54.8608
rradius 116.32
rwrist -1.58172
rhand -20.4169 -28.6408
rfingers 7.12502
rthumb 5.93736 -58.5376
lclavicle -6.36111e-015 -3.65764e-014
lhumerus 14.3346 -17.6212 61.1902
lradius 115.872
lwrist -16.6869
lhand -26.5533 26.3918
lfingers 7.12502
lthumb 0.0113702 56.3715
rfemur -30.1893 -1.60159 19.7198
rtibia 24.262
rfoot 1.69868 -9.60254
rtoes 12.6245
lfemur 0.922244 -6.42089 -18.2709
ltibia 33.4557
lfoot -12.6699 -0.0749461
ltoes -28.8335
309
root -9.32368 17.7756 3.74747 433.125 -87.6015 -428.09
lowerback -1.30771 -2.28353 1.00305
upperback -1.31889 -3.15888 5.36649
thorax -0.372031 -1.62139 4.93864
lowerneck -8.26333 -5.70468 -6.57831
upperneck 21.6995 -8.50554 5.02597
head 8.60494 -4.26006 1.89664
rclavicle 6.16232e-015 -3.18055e-014
rhumerus 8.26213 11.5932 -53.8286
rradius 117.483
rwrist -1.58572
rhand -20.6795 -28.7369
rfingers 7.12502
rthumb 5.68379 -58.6407
lclavicle 6.16232e-015 -3.18055e-014
lhumerus 16.3079 -17.3598 60.3854
lradius 116.345
lwrist -16.5755
lhand -26.428 26.3981
lfingers 7.12502
lthumb 0.132381 56.3778
rfemur -29.5479 -1.69361 20.2234
rtibia 24.3391
rfoot 1.27303 -9.17782
rtoes 13.2693
lfemur 0.379841 -6.03795 -17.6417
ltibia 35.0186
lfoot -11.1389 -0.743589
ltoes -29.4831
310
root -9.48016 17.8011 3.71683 436.602 -87.2981 -431.618
lowerback -1.36942 -2.20597 1.33468
upperback -1.40755 -3.06552 5.5215
thorax -0.444715 -1.57923 4.91506
lowerneck -8.31389 -5.69418 -6.64061
upperneck 21.961 -8.48446 4.93429
head 8.70098 -4.26585 1.8748
rclavicle -3.54831e-014 1.59028e-014
rhumerus 10.5962 10.8836 -52.8704
rradius 118.508
rwrist -1.51963
rhand -20.9842 -28.7328
rfingers 7.12502
rthumb 5.38961 -58.6443
lclavicle -3.54831e-014 1.59028e-014
lhumerus 18.1131 -17.0955 59.6762
lradius 116.738
lwrist -16.5527
lhand -26.2605 26.3137
lfingers 7.12502
lthumb 0.294187 56.2932
rfemur -28.8745 -1.79477 20.7826
rtibia 24.3242
rfoot 0.826068 -8.7233
rtoes 13.8299
lfemur -0.253085 -5.59929 -16.9359
ltibia 36.6159
lfoot -9.33379 -1.3948
ltoes -29.7733
311
root -9.63602 17.8274 3.68585 439.437 -86.9533 -434.48
lowerback -1.43695 -2.13135 1.69818
upperback -1.49989 -2.97764 5.6877
thorax -0.518041 -1.54084 4.88517
lowerneck -8.40211 -5.67917 -6.71893
upperneck 22.1926 -8.45028 4.85896
head 8.79475 -4.26381 1.86159
rclavicle 6.60959e-015 -7.95139e-015
rhumerus 12.8435 10.1709 -51.9949
rradius 119.419
rwrist -1.42415
rhand -21.1863 -28.6973
rfingers 7.12502
rthumb 5.19448 -58.6136
lclavicle 6.60959e-015 -7.95139e-015
lhumerus 19.7609 -16.8188 59.04
lradius 117.075
lwrist -16.5683
lhand -26.0308 26.178
lfingers 7.12502
lthumb 0.516026 56.1571
rfemur -28.1891 -1.88872 21.3815
rtibia 24.2396
rfoot 0.355971 -8.31054
rtoes 14.2376
lfemur -0.975447 -5.12051 -16.17
ltibia 38.2328
lfoot -7.24379 -2.00658
ltoes -29.5856
